<svg xmlns="http://www.w3.org/2000/svg" viewBox="0 0 40 40">
  <path d="M36.82,18.16v.66a23,23,0,0,1-2.53,9.78,22.73,22.73,0,0,1-7.21,7.07l-.56.33-1-.57-5.66-3.27a9.65,9.65,0,0,1-1-.65h0a6.92,6.92,0,0,1-.8-.63,10.76,10.76,0,0,1-1.58-1.66,11.33,11.33,0,0,1-1.57-2.78A13.17,13.17,0,0,1,14,20.88a3.78,3.78,0,0,1,1.81-.46l.46,0a11.2,11.2,0,0,0,.62,4.88A9.33,9.33,0,0,0,21,30.23l5.5,3.17.42-.29a19.61,19.61,0,0,0,5.46-5.63,20.09,20.09,0,0,0,2.19-8l-2.33-1.35a14.15,14.15,0,0,0,.37-2.36Z" fill="#3880ff"/>
  <path d="M30.38,7V14.7a11.71,11.71,0,0,1-.06,1.19h0c0,.34-.08.68-.14,1a11.77,11.77,0,0,1-.66,2.19,11.32,11.32,0,0,1-1.61,2.77,13.13,13.13,0,0,1-4.35,3.57,3.73,3.73,0,0,1-1.5-1.75,11.08,11.08,0,0,0,3.88-3h0a9.33,9.33,0,0,0,2.21-6V8.36l-.46-.22a19.58,19.58,0,0,0-7.61-1.91A19.9,19.9,0,0,0,12,8.36v2.69a14.39,14.39,0,0,0-2.23.85V7l.56-.32A22.86,22.86,0,0,1,20.08,4a22.75,22.75,0,0,1,9.73,2.7Z" fill="#3880ff"/>
  <path d="M11.13,16.24l-5.5,3.17c0,.14,0,.31,0,.49a19.33,19.33,0,0,0,2.15,7.56,20.05,20.05,0,0,0,5.86,5.94L16,32.05a14.35,14.35,0,0,0,1.86,1.5L13.64,36l-.57-.33a22.83,22.83,0,0,1-7.19-7.08A22.84,22.84,0,0,1,3.36,18.8v-.65l1-.58L10,14.31a11.75,11.75,0,0,1,1.06-.54c.31-.14.63-.27.95-.38a10.8,10.8,0,0,1,2.23-.53,12.24,12.24,0,0,1,3.2,0,13.34,13.34,0,0,1,5.26,2A3.9,3.9,0,0,1,22,17a11.22,11.22,0,0,0-4.5-1.89A9.36,9.36,0,0,0,11.13,16.24Z" fill="#3880ff"/>
</svg>
