<svg width="600" height="600" viewBox="0 0 600 600" fill="none" xmlns="http://www.w3.org/2000/svg">
<rect width="600" height="600" fill="#F14D5A"/>
<path d="M341.168 412.52H509.291V446.7C509.291 454.631 515.713 461.051 523.647 461.051C531.581 461.051 538.004 454.631 538.004 446.7V398.169C538.004 390.237 531.581 383.817 523.647 383.817H340.884C337.768 355.964 326.339 330.565 309.243 310.076L361.097 258.24L399.916 297.046C402.75 299.879 406.433 301.295 410.117 301.295C413.801 301.295 417.484 299.879 420.318 297.046C425.89 291.476 425.89 282.317 420.318 276.746L381.498 237.94L429.196 190.259L468.016 229.065C473.588 234.636 482.75 234.636 488.322 229.065C493.895 223.494 493.895 214.336 488.322 208.765L439.397 159.856C433.824 154.286 424.662 154.286 419.09 159.856L351.085 227.838L288.653 289.965C268.063 273.725 242.75 263.15 215.17 260.601V196.491H230.282C238.216 196.491 244.639 190.07 244.639 182.139C244.639 174.208 238.216 167.787 230.282 167.787H215.17V142.106H240.483C248.417 142.106 254.84 135.685 254.84 127.754C254.84 119.823 248.417 113.402 240.483 113.402H215.17V89.7032H270.046C277.98 89.7032 284.403 83.2828 284.403 75.3516C284.403 67.4205 277.98 61 270.046 61H200.814C192.88 61 186.457 67.4205 186.457 75.3516V260.978C116.941 268.91 62.8208 328.016 62.8208 399.49C62.8208 476.347 125.442 538.947 202.325 538.947C274.863 538.947 334.556 483.334 341.168 412.52ZM202.325 510.243C141.215 510.243 91.5339 460.579 91.5339 399.49C91.5339 338.402 141.215 288.738 202.325 288.738C262.774 288.738 312.077 337.457 313.116 397.602C313.116 397.791 313.116 397.98 313.116 398.074C313.116 398.357 313.116 398.641 313.116 398.924C313.116 399.113 313.116 399.302 313.116 399.396C313.021 460.579 263.34 510.243 202.325 510.243Z" fill="white"/>
<path d="M207.236 487.3C211.298 485.6 214.981 483.051 218.287 479.841L218.57 479.652L218.759 479.463L218.854 479.369L219.043 479.18L219.137 479.085L219.609 478.613L219.704 478.519L219.893 478.33L219.987 478.236L220.176 478.047L220.27 477.952C223.293 474.742 226.032 471.154 228.393 467.189L229.999 467.094C231.416 467 232.738 466.716 234.06 466.244C233.116 468.038 232.077 469.832 230.943 471.626C229.716 473.609 231.699 475.969 233.777 475.12L261.168 463.978C264.662 462.562 267.118 460.107 268.535 456.614C270.141 452.554 270.991 448.116 271.085 443.489V443.206V442.923V442.829V442.545V442.451V441.696V441.507V441.318V441.223V441.035V440.94C270.991 436.597 270.33 432.065 269.196 427.627L270.235 426.4C271.18 425.361 271.935 424.228 272.502 423.001C273.163 424.983 273.635 426.966 274.108 428.949C274.58 431.215 277.697 431.498 278.641 429.421L290.164 402.229C291.581 398.735 291.581 395.242 290.164 391.748C288.464 387.688 285.914 384.006 282.703 380.701L282.514 380.418L282.325 380.229L282.041 380.04L281.853 379.851L281.758 379.757L281.286 379.285L281.191 379.19L281.002 379.002L280.908 378.907L280.719 378.718L280.625 378.624C277.413 375.603 273.824 372.864 269.857 370.598L269.763 368.993C269.668 367.577 269.385 366.255 268.913 365.028C270.707 365.972 272.502 367.01 274.296 368.143C276.28 369.371 278.641 367.388 277.791 365.311L266.646 337.93C265.229 334.436 262.773 331.981 259.279 330.565C255.217 328.96 250.778 328.11 246.15 328.016H245.867H245.583H245.489H245.206H245.111H244.355H244.167H243.978H243.883H243.694H243.6C239.255 328.11 234.722 328.771 230.282 329.904L229.054 328.865C228.015 327.921 226.882 327.166 225.654 326.599C227.638 325.938 229.621 325.466 231.605 324.994C233.871 324.522 234.155 321.406 232.077 320.462L204.875 308.943C201.38 307.527 197.886 307.527 194.391 308.943C190.33 310.643 186.646 313.192 183.34 316.402L183.057 316.591L182.868 316.78L182.773 316.874L182.585 317.063L182.49 317.157L181.923 317.724L181.829 317.818L181.64 318.007L181.546 318.102L181.357 318.29L181.262 318.385C178.24 321.595 175.501 325.183 173.234 329.149L171.628 329.243C170.211 329.337 168.889 329.621 167.567 330.093C168.511 328.299 169.55 326.505 170.684 324.711C171.912 322.728 169.928 320.368 167.85 321.217L140.459 332.359C136.965 333.775 134.509 336.23 133.092 339.723C131.487 343.783 130.637 348.221 130.542 352.848V353.131V353.414V353.509V353.792V353.886V354.642V354.83V355.019V355.114V355.303V355.397C130.637 359.74 131.298 364.272 132.431 368.71L131.392 369.937C130.448 370.976 129.692 372.109 129.125 373.336C128.464 371.354 127.992 369.371 127.52 367.388C127.047 365.122 123.931 364.839 122.986 366.916L111.463 394.109C110.046 397.602 110.046 401.096 111.463 404.589C113.163 408.649 115.713 412.331 118.925 415.636L119.113 415.919L119.302 416.108L119.397 416.203L119.586 416.391L119.68 416.486L120.152 416.958L120.247 417.052L120.436 417.241L120.53 417.336L120.719 417.524L120.814 417.619C124.025 420.64 127.614 423.378 131.581 425.644L131.675 427.249C131.77 428.666 132.053 429.988 132.526 431.215C130.731 430.271 128.936 429.232 127.142 428.099C125.158 426.872 122.797 428.855 123.647 430.932L134.792 458.313C136.209 461.807 138.665 464.262 142.16 465.678C146.221 467.283 150.66 468.133 155.288 468.227H155.572H155.855H155.949H156.233H156.327H157.083H157.272H157.461H157.555H157.744H157.838C162.183 468.133 166.717 467.472 171.156 466.339L172.384 467.377C173.423 468.322 174.556 469.077 175.784 469.643C173.801 470.304 171.817 470.776 169.739 471.249C167.472 471.721 167.189 474.836 169.267 475.781L196.469 487.3C200.247 488.81 203.742 488.81 207.236 487.3ZM243.6 433.481V433.764V433.953C243.6 433.953 243.6 434.048 243.6 434.142V434.236C243.505 439.618 242.75 444.623 241.428 448.966V449.06L241.05 450.099V450.193L240.766 450.854C239.916 453.12 238.877 455.103 237.649 456.991C237.083 457.936 236.422 458.785 235.666 459.635C234.344 461.146 232.832 462.09 230.943 462.373C230.471 462.468 230.093 462.562 229.621 462.562L220.459 463.034C218.287 463.129 216.398 462.09 215.359 460.202C214.32 458.313 214.415 456.047 215.642 454.159L215.737 454.064L215.831 453.97L216.398 453.12C216.398 453.12 216.398 453.026 216.492 453.026L216.87 452.365C216.87 452.365 216.87 452.27 216.965 452.27L217.154 451.987L217.248 451.893L217.343 451.704L217.437 451.609L217.626 451.326C220.176 446.889 221.876 441.979 223.01 436.125C223.104 435.653 223.198 435.181 223.198 434.803L223.293 434.048C223.293 433.953 223.293 433.953 223.293 433.859C223.293 433.67 223.293 433.576 223.387 433.387C223.765 430.649 224.049 427.722 224.143 424.7C224.237 421.207 226.882 418.374 230.377 418.185L235.005 417.902C235.099 417.902 235.194 417.902 235.288 417.902C236.611 417.902 237.838 418.374 238.972 419.318C242.089 422.245 243.694 428.666 243.789 432.065V432.348V432.631V432.726L243.6 433.481ZM266.174 406.855L266.363 407.233C267.402 409.404 268.063 411.67 268.535 413.842C268.724 414.881 268.913 415.919 269.007 416.958C269.102 418.941 268.724 420.64 267.685 422.245C267.402 422.623 267.213 423.001 266.835 423.284L260.79 430.082C259.373 431.687 257.295 432.348 255.217 431.782C253.139 431.215 251.534 429.516 251.156 427.344V427.061V426.966V426.777V426.683L251.062 426.4V426.305L250.873 425.267C250.873 425.267 250.873 425.172 250.873 425.078L250.684 424.323V424.228L250.589 423.85C249.267 418.941 247 414.22 243.6 409.31C243.317 408.932 243.033 408.555 242.844 408.177L242.372 407.516L242.278 407.422C242.183 407.327 242.089 407.138 241.994 407.044C240.294 404.872 238.405 402.606 236.327 400.34C233.966 397.791 233.871 393.92 236.138 391.276L236.233 391.182L239.255 387.783C239.35 387.688 239.35 387.688 239.444 387.594C240.389 386.65 241.522 386.083 243.033 386.083C247.283 385.894 253.045 389.388 255.501 391.748L255.878 392.126L255.973 392.22L256.917 393.164C260.696 397.036 263.718 401.096 265.796 405.061L265.89 405.156L266.457 406.383C266.079 406.761 266.079 406.761 266.174 406.855ZM235.383 355.397C235.383 355.397 235.477 355.397 235.572 355.397H236.044H236.233H236.327H236.516H236.705H236.799H236.988C242.372 355.491 247.378 356.247 251.723 357.569H251.817L252.856 357.946H252.951L253.706 358.23C255.973 359.079 257.956 360.118 259.751 361.345C260.696 361.912 261.546 362.573 262.396 363.328C263.907 364.65 264.851 366.161 265.135 368.049C265.229 368.521 265.324 368.899 265.324 369.371L265.796 378.53C265.89 380.701 264.851 382.59 262.962 383.628C261.073 384.667 258.806 384.572 256.917 383.345L256.823 383.25C256.823 383.25 256.729 383.156 256.634 383.156L256.445 383.062C256.445 383.062 256.351 383.062 256.351 382.967L256.067 382.778L255.878 382.684L255.784 382.59L255.217 382.212L255.123 382.117L254.745 381.929H254.651L254.462 381.834L254.367 381.74L254.084 381.551C249.645 379.002 244.733 377.302 238.877 376.169C238.405 376.075 237.933 375.98 237.555 375.98L236.799 375.886C236.705 375.886 236.705 375.886 236.611 375.886C236.422 375.886 236.327 375.886 236.138 375.791C233.399 375.414 230.471 375.13 227.449 375.036C223.954 374.942 221.121 372.298 220.932 368.804L220.648 364.083C220.648 363.989 220.648 363.895 220.648 363.8C220.648 362.478 221.121 361.251 222.065 360.118C224.993 356.908 231.416 355.397 234.91 355.303L235.383 355.397ZM194.58 343.784L194.958 343.406C194.958 343.406 195.052 343.406 195.052 343.311L195.524 342.839C195.524 342.839 195.524 342.839 195.619 342.745L196.091 342.273C199.964 338.496 204.025 335.475 208.086 333.397L209.314 332.737C209.314 332.737 209.409 332.737 209.409 332.642L209.786 332.453C211.959 331.415 214.226 330.754 216.398 330.282C217.437 330.093 218.476 329.904 219.515 329.81C221.498 329.715 223.198 330.093 224.804 331.131C225.182 331.415 225.56 331.604 225.843 331.981L232.644 338.024C234.249 339.44 234.91 341.517 234.344 343.595C233.777 345.766 232.077 347.277 229.904 347.655H229.716H229.621H229.432C229.338 347.655 229.338 347.655 229.243 347.655H229.054C228.96 347.655 228.96 347.655 228.866 347.655L227.827 347.938H227.732L227.071 348.127H226.977L226.599 348.221C221.687 349.543 216.965 351.903 212.148 355.114C212.148 355.114 212.053 355.114 212.053 355.208C211.675 355.491 211.298 355.775 211.014 355.963L210.92 356.058C210.92 356.058 210.825 356.058 210.825 356.152L210.353 356.53L210.259 356.624C210.164 356.719 209.975 356.813 209.881 356.908C207.709 358.607 205.442 360.401 203.175 362.573C200.625 364.933 196.752 365.028 194.108 362.762L190.613 359.74C190.518 359.646 190.518 359.646 190.424 359.551C189.479 358.607 188.913 357.474 188.913 355.963C188.724 351.998 192.219 346.333 194.58 343.784ZM187.685 363.517L191.274 366.633C193.352 368.427 195.997 369.371 198.641 369.371C201.475 369.371 204.214 368.332 206.481 366.255C208.559 364.272 210.731 362.478 212.714 360.968C213.753 361.817 214.887 362.573 216.115 363.045C216.115 363.517 216.115 363.895 216.115 364.367L216.398 369.088C216.776 374.847 221.498 379.379 227.354 379.568C230.188 379.663 232.927 379.851 235.477 380.229C235.572 381.551 235.855 382.873 236.422 384.1C236.138 384.383 235.76 384.667 235.477 385.044L232.455 388.538L232.36 388.632C228.582 392.976 228.771 399.49 232.738 403.739C234.721 405.816 236.422 407.894 238.027 409.971C237.177 411.01 236.422 412.143 235.949 413.37C235.477 413.37 235.099 413.37 234.627 413.37L229.904 413.653C224.143 414.031 219.609 418.752 219.42 424.606C219.326 427.438 219.137 430.176 218.759 432.726C217.437 432.82 216.115 433.103 214.887 433.67C214.603 433.387 214.32 433.009 213.942 432.726L210.448 429.704C210.448 429.704 210.353 429.704 210.353 429.61C206.008 425.833 199.491 426.022 195.241 429.988C193.163 431.97 191.085 433.764 189.007 435.275C187.968 434.425 186.835 433.67 185.607 433.198C185.607 432.726 185.607 432.348 185.607 431.876L185.324 427.155C184.946 421.396 180.223 416.863 174.367 416.675C171.534 416.58 168.795 416.391 166.245 416.014C166.15 414.692 165.867 413.37 165.3 412.143C165.583 411.859 165.961 411.576 166.245 411.198L169.267 407.705L169.361 407.61C173.045 403.267 172.951 396.752 168.984 392.503C167 390.426 165.206 388.349 163.694 386.272C164.544 385.233 165.3 384.1 165.772 382.873C165.961 382.873 166.15 382.873 166.433 382.873C166.622 382.873 166.906 382.873 167.095 382.873L171.817 382.59C177.579 382.212 182.112 377.491 182.301 371.637C182.396 368.804 182.585 366.066 182.962 363.517C184.285 363.423 185.607 363.139 186.835 362.573C187.024 362.95 187.307 363.234 187.685 363.517ZM158.027 362.762V362.478V362.29V362.195V362.101C158.122 356.719 158.877 351.715 160.2 347.371V347.277L160.483 346.238C160.483 346.238 160.577 346.144 160.577 346.05L160.861 345.389C161.711 343.123 162.75 341.14 163.978 339.251C164.544 338.307 165.206 337.457 165.961 336.608C167.284 335.097 168.795 334.153 170.684 333.87C171.156 333.775 171.534 333.681 172.006 333.681L181.168 333.209C183.34 333.114 185.229 334.153 186.268 336.041C187.307 337.93 187.213 340.196 185.985 342.084L185.89 342.178L185.796 342.273L185.701 342.462C185.701 342.462 185.701 342.556 185.607 342.556L185.418 342.839L185.229 343.123L185.135 343.217L184.946 343.5C184.946 343.5 184.946 343.595 184.851 343.595L184.568 343.972C184.568 343.972 184.568 344.067 184.474 344.067L184.379 344.161C184.379 344.161 184.379 344.256 184.285 344.256L184.19 344.444C184.19 344.444 184.19 344.539 184.096 344.539L183.907 344.822C181.357 349.26 179.657 354.17 178.523 360.023C178.429 360.496 178.334 360.968 178.334 361.345L178.24 362.101C178.24 362.195 178.24 362.195 178.24 362.29C178.24 362.478 178.24 362.573 178.145 362.762C177.768 365.5 177.484 368.427 177.39 371.448C177.295 374.942 174.651 377.774 171.156 377.963L166.433 378.246C166.339 378.246 166.245 378.246 166.15 378.246C164.828 378.246 163.6 377.774 162.466 376.83C159.35 373.903 157.744 367.483 157.649 363.989V363.423V363.328L158.027 362.762ZM135.454 389.482L135.359 389.293C135.359 389.293 135.359 389.293 135.359 389.199L135.265 389.01C135.265 389.01 135.265 389.01 135.265 388.916C134.32 386.744 133.565 384.572 133.092 382.401C132.903 381.362 132.714 380.323 132.62 379.285C132.526 377.302 132.903 375.603 133.942 373.997C134.226 373.62 134.415 373.242 134.792 372.959L140.837 366.161C142.254 364.556 144.332 363.895 146.41 364.461C148.582 365.028 150.093 366.727 150.471 368.899V369.182V369.277V369.56V369.654L150.566 369.937V370.032L150.755 371.07V371.165L150.943 371.826C150.943 371.92 150.943 371.92 150.943 372.015L151.038 372.298C152.36 377.208 154.627 381.929 157.933 386.744C157.933 386.744 157.933 386.838 158.027 386.838C158.311 387.216 158.5 387.594 158.783 387.877L159.255 388.538L159.35 388.632C159.444 388.727 159.539 388.916 159.633 389.01C161.239 391.182 163.128 393.448 165.3 395.714C167.661 398.263 167.756 402.134 165.489 404.778L165.394 404.872L162.466 408.271C162.372 408.366 162.372 408.366 162.278 408.46C161.333 409.404 160.2 409.971 158.688 409.971C154.344 410.16 148.677 406.666 146.221 404.306L145.843 403.928C145.843 403.928 145.843 403.928 145.749 403.834L144.804 402.89C141.026 399.018 138.004 394.958 135.926 390.898V390.804L135.737 390.426C135.737 390.426 135.737 390.426 135.737 390.332L135.359 389.482C135.454 389.576 135.454 389.482 135.454 389.482ZM166.15 440.94H166.056H165.867H165.772H165.678H165.489H165.206H165.017H164.922H164.733C159.35 440.846 154.344 440.09 149.999 438.769H149.905L148.866 438.391H148.771L148.11 438.108C145.843 437.258 143.86 436.219 141.971 434.992C141.026 434.425 140.176 433.764 139.326 433.103C137.815 431.782 136.87 430.271 136.587 428.383C136.492 427.91 136.398 427.533 136.398 427.061L135.926 417.902C135.831 415.73 136.87 413.842 138.759 412.803C140.648 411.765 142.915 411.859 144.804 413.087L144.899 413.181C144.993 413.181 144.993 413.276 145.088 413.276L145.371 413.464C145.371 413.464 145.465 413.464 145.465 413.559L145.56 413.653L145.843 413.842L145.938 413.936L146.504 414.22L146.599 414.314L146.977 414.503H147.071L147.26 414.597C147.26 414.597 147.354 414.597 147.354 414.692L147.638 414.881C152.077 417.43 156.988 419.13 162.844 420.263C163.317 420.357 163.789 420.451 164.167 420.451L164.922 420.546H165.017C165.206 420.546 165.3 420.546 165.489 420.64C168.228 421.018 171.156 421.301 174.178 421.396C177.673 421.49 180.507 424.134 180.696 427.627L180.979 432.348C180.979 432.443 180.979 432.537 180.979 432.631C180.979 433.953 180.507 435.181 179.562 436.314C176.634 439.524 170.211 441.035 166.717 441.129L166.15 440.94ZM193.541 462.751C193.541 462.751 193.446 462.751 193.446 462.845L192.219 463.412C192.219 463.412 192.124 463.412 192.124 463.506L191.935 463.601L191.746 463.695C189.574 464.734 187.307 465.395 185.135 465.867C184.096 466.056 183.057 466.244 182.018 466.339C180.034 466.433 178.334 466.056 176.729 465.017C176.351 464.734 175.973 464.545 175.69 464.167L168.889 458.124C167.284 456.708 166.622 454.631 167.189 452.554C167.756 450.382 169.456 448.871 171.723 448.494H171.817C171.912 448.494 171.912 448.494 172.006 448.494H172.195H172.289L172.573 448.399H172.667L173.706 448.116H173.801L174.556 447.927H174.651L175.028 447.833C179.94 446.511 184.662 444.245 189.574 440.846C189.952 440.563 190.33 440.279 190.707 440.09L191.274 439.618C191.368 439.618 191.369 439.524 191.463 439.524C191.557 439.429 191.746 439.335 191.841 439.241C194.013 437.541 196.28 435.653 198.547 433.576C201.097 431.215 204.969 431.121 207.614 433.387C207.614 433.387 207.709 433.387 207.709 433.481L211.109 436.502C211.203 436.597 211.203 436.597 211.298 436.691C212.242 437.636 212.809 438.769 212.809 440.279C212.998 444.528 209.503 450.288 207.142 452.742L206.764 453.12C206.764 453.12 206.764 453.12 206.67 453.215L205.725 454.159C201.664 457.652 197.602 460.674 193.541 462.751Z" fill="white"/>
</svg>
