<svg fill="none" height="600" viewBox="0 0 600 600" width="600" xmlns="http://www.w3.org/2000/svg"><path d="m0 0h600v600h-600z" fill="#f14d5a"/><g fill="#fff"><path d="m341.168 412.52h168.123v34.18c0 7.931 6.422 14.351 14.356 14.351s14.357-6.42 14.357-14.351v-48.531c0-7.932-6.423-14.352-14.357-14.352h-182.763c-3.116-27.853-14.545-53.252-31.641-73.741l51.854-51.836 38.819 38.806c2.834 2.833 6.517 4.249 10.201 4.249s7.367-1.416 10.201-4.249c5.572-5.57 5.572-14.729 0-20.3l-38.82-38.806 47.698-47.681 38.82 38.806c5.572 5.571 14.734 5.571 20.306 0 5.573-5.571 5.573-14.729 0-20.3l-48.925-48.909c-5.573-5.57-14.735-5.57-20.307 0l-68.005 67.982-62.432 62.127c-20.59-16.24-45.903-26.815-73.483-29.364v-64.11h15.112c7.934 0 14.357-6.421 14.357-14.352s-6.423-14.352-14.357-14.352h-15.112v-25.681h25.313c7.934 0 14.357-6.421 14.357-14.352s-6.423-14.352-14.357-14.352h-25.313v-23.6988h54.876c7.934 0 14.357-6.4204 14.357-14.3516 0-7.9311-6.423-14.3516-14.357-14.3516h-69.232c-7.934 0-14.357 6.4205-14.357 14.3516v185.6264c-69.516 7.932-123.6362 67.038-123.6362 138.512 0 76.857 62.6212 139.457 139.5042 139.457 72.538 0 132.231-55.613 138.843-126.427zm-138.843 97.723c-61.11 0-110.7911-49.664-110.7911-110.753 0-61.088 49.6811-110.752 110.7911-110.752 60.449 0 109.752 48.719 110.791 108.864v.472.85.472c-.095 61.183-49.776 110.847-110.791 110.847z"/><path d="m207.236 487.3c4.062-1.7 7.745-4.249 11.051-7.459l.283-.189.189-.189.095-.094.189-.189.094-.095.472-.472.095-.094.189-.189.094-.094.189-.189.094-.095c3.023-3.21 5.762-6.798 8.123-10.763l1.606-.095c1.417-.094 2.739-.378 4.061-.85-.944 1.794-1.983 3.588-3.117 5.382-1.227 1.983.756 4.343 2.834 3.494l27.391-11.142c3.494-1.416 5.95-3.871 7.367-7.364 1.606-4.06 2.456-8.498 2.55-13.125v-.283-.283-.094-.284-.094-.755-.189-.189-.095-.188-.095c-.094-4.343-.755-8.875-1.889-13.313l1.039-1.227c.945-1.039 1.7-2.172 2.267-3.399.661 1.982 1.133 3.965 1.606 5.948.472 2.266 3.589 2.549 4.533.472l11.523-27.192c1.417-3.494 1.417-6.987 0-10.481-1.7-4.06-4.25-7.742-7.461-11.047l-.189-.283-.189-.189-.284-.189-.188-.189-.095-.094-.472-.472-.095-.095-.189-.188-.094-.095-.189-.189-.094-.094c-3.212-3.021-6.801-5.76-10.768-8.026l-.094-1.605c-.095-1.416-.378-2.738-.85-3.965 1.794.944 3.589 1.982 5.383 3.115 1.984 1.228 4.345-.755 3.495-2.832l-11.145-27.381c-1.417-3.494-3.873-5.949-7.367-7.365-4.062-1.605-8.501-2.455-13.129-2.549h-.283-.284-.094-.283-.095-.756-.188-.189-.095-.189-.094c-4.345.094-8.878.755-13.318 1.888l-1.228-1.039c-1.039-.944-2.172-1.699-3.4-2.266 1.984-.661 3.967-1.133 5.951-1.605 2.266-.472 2.55-3.588.472-4.532l-27.202-11.519c-3.495-1.416-6.989-1.416-10.484 0-4.061 1.7-7.745 4.249-11.051 7.459l-.283.189-.189.189-.095.094-.188.189-.095.094-.567.567-.094.094-.189.189-.094.095-.189.188-.095.095c-3.022 3.21-5.761 6.798-8.028 10.764l-1.606.094c-1.417.094-2.739.378-4.061.85.944-1.794 1.983-3.588 3.117-5.382 1.228-1.983-.756-4.343-2.834-3.494l-27.391 11.142c-3.494 1.416-5.95 3.871-7.367 7.364-1.605 4.06-2.455 8.498-2.55 13.125v.283.283.095.283.094.756.188.189.095.189.094c.095 4.343.756 8.875 1.889 13.313l-1.039 1.227c-.944 1.039-1.7 2.172-2.267 3.399-.661-1.982-1.133-3.965-1.605-5.948-.473-2.266-3.589-2.549-4.534-.472l-11.523 27.193c-1.417 3.493-1.417 6.987 0 10.48 1.7 4.06 4.25 7.742 7.462 11.047l.188.283.189.189.095.095.189.188.094.095.472.472.095.094.189.189.094.095.189.188.095.095c3.211 3.021 6.8 5.759 10.767 8.025l.094 1.605c.095 1.417.378 2.739.851 3.966-1.795-.944-3.59-1.983-5.384-3.116-1.984-1.227-4.345.756-3.495 2.833l11.145 27.381c1.417 3.494 3.873 5.949 7.368 7.365 4.061 1.605 8.5 2.455 13.128 2.549h.284.283.094.284.094.756.189.189.094.189.094c4.345-.094 8.879-.755 13.318-1.888l1.228 1.038c1.039.945 2.172 1.7 3.4 2.266-1.983.661-3.967 1.133-6.045 1.606-2.267.472-2.55 3.587-.472 4.532l27.202 11.519c3.778 1.51 7.273 1.51 10.767 0zm36.364-53.819v.283.189.189.094c-.095 5.382-.85 10.387-2.172 14.73v.094l-.378 1.039v.094l-.284.661c-.85 2.266-1.889 4.249-3.117 6.137-.566.945-1.227 1.794-1.983 2.644-1.322 1.511-2.834 2.455-4.723 2.738-.472.095-.85.189-1.322.189l-9.162.472c-2.172.095-4.061-.944-5.1-2.832-1.039-1.889-.944-4.155.283-6.043l.095-.095.094-.094.567-.85s0-.094.094-.094l.378-.661s0-.095.095-.095l.189-.283.094-.094.095-.189.094-.095.189-.283c2.55-4.437 4.25-9.347 5.384-15.201.094-.472.188-.944.188-1.322l.095-.755c0-.095 0-.095 0-.189 0-.189 0-.283.094-.472.378-2.738.662-5.665.756-8.687.094-3.493 2.739-6.326 6.234-6.515l4.628-.283h.283c1.323 0 2.55.472 3.684 1.416 3.117 2.927 4.722 9.348 4.817 12.747v.283.283.095zm22.574-26.626.189.378c1.039 2.171 1.7 4.437 2.172 6.609.189 1.039.378 2.077.472 3.116.095 1.983-.283 3.682-1.322 5.287-.283.378-.472.756-.85 1.039l-6.045 6.798c-1.417 1.605-3.495 2.266-5.573 1.7-2.078-.567-3.683-2.266-4.061-4.438v-.283-.095-.189-.094l-.094-.283v-.095l-.189-1.038s0-.095 0-.189l-.189-.755v-.095l-.095-.378c-1.322-4.909-3.589-9.63-6.989-14.54-.283-.378-.567-.755-.756-1.133l-.472-.661-.094-.094c-.095-.095-.189-.284-.284-.378-1.7-2.172-3.589-4.438-5.667-6.704-2.361-2.549-2.456-6.42-.189-9.064l.095-.094 3.022-3.399.189-.189c.945-.944 2.078-1.511 3.589-1.511 4.25-.189 10.012 3.305 12.468 5.665l.377.378.095.094.944.944c3.779 3.872 6.801 7.932 8.879 11.897l.094.095.567 1.227c-.378.378-.378.378-.283.472zm-30.791-51.458h.189.472.189.094.189.189.094.189c5.384.094 10.39.85 14.735 2.172h.094l1.039.377h.095l.755.284c2.267.849 4.25 1.888 6.045 3.115.945.567 1.795 1.228 2.645 1.983 1.511 1.322 2.455 2.833 2.739 4.721.094.472.189.85.189 1.322l.472 9.159c.094 2.171-.945 4.06-2.834 5.098-1.889 1.039-4.156.944-6.045-.283l-.094-.095s-.094-.094-.189-.094l-.189-.094s-.094 0-.094-.095l-.284-.189-.189-.094-.094-.094-.567-.378-.094-.095-.378-.188h-.094l-.189-.095-.095-.094-.283-.189c-4.439-2.549-9.351-4.249-15.207-5.382-.472-.094-.944-.189-1.322-.189l-.756-.094c-.094 0-.094 0-.188 0-.189 0-.284 0-.473-.095-2.739-.377-5.667-.661-8.689-.755-3.495-.094-6.328-2.738-6.517-6.232l-.284-4.721c0-.094 0-.188 0-.283 0-1.322.473-2.549 1.417-3.682 2.928-3.21 9.351-4.721 12.845-4.815zm-40.803-11.613.378-.378s.094 0 .094-.095l.472-.472s0 0 .095-.094l.472-.472c3.873-3.777 7.934-6.798 11.995-8.876l1.228-.66s.095 0 .095-.095l.377-.189c2.173-1.038 4.44-1.699 6.612-2.171 1.039-.189 2.078-.378 3.117-.472 1.983-.095 3.683.283 5.289 1.321.378.284.756.473 1.039.85l6.801 6.043c1.605 1.416 2.266 3.493 1.7 5.571-.567 2.171-2.267 3.682-4.44 4.06h-.188-.095-.189c-.094 0-.094 0-.189 0h-.189c-.094 0-.094 0-.188 0l-1.039.283h-.095l-.661.189h-.094l-.378.094c-4.912 1.322-9.634 3.682-14.451 6.893 0 0-.095 0-.095.094-.378.283-.755.567-1.039.755l-.094.095s-.095 0-.095.094l-.472.378-.094.094c-.095.095-.284.189-.378.284-2.172 1.699-4.439 3.493-6.706 5.665-2.55 2.36-6.423 2.455-9.067.189l-3.495-3.022c-.095-.094-.095-.094-.189-.189-.945-.944-1.511-2.077-1.511-3.588-.189-3.965 3.306-9.63 5.667-12.179zm-6.895 19.733 3.589 3.116c2.078 1.794 4.723 2.738 7.367 2.738 2.834 0 5.573-1.039 7.84-3.116 2.078-1.983 4.25-3.777 6.233-5.287 1.039.849 2.173 1.605 3.401 2.077v1.322l.283 4.721c.378 5.759 5.1 10.291 10.956 10.48 2.834.095 5.573.283 8.123.661.095 1.322.378 2.644.945 3.871-.284.283-.662.567-.945.944l-3.022 3.494-.095.094c-3.778 4.344-3.589 10.858.378 15.107 1.983 2.077 3.684 4.155 5.289 6.232-.85 1.039-1.605 2.172-2.078 3.399-.472 0-.85 0-1.322 0l-4.723.283c-5.761.378-10.295 5.099-10.484 10.953-.094 2.832-.283 5.57-.661 8.12-1.322.094-2.644.377-3.872.944-.284-.283-.567-.661-.945-.944l-3.494-3.022s-.095 0-.095-.094c-4.345-3.777-10.862-3.588-15.112.378-2.078 1.982-4.156 3.776-6.234 5.287-1.039-.85-2.172-1.605-3.4-2.077 0-.472 0-.85 0-1.322l-.283-4.721c-.378-5.759-5.101-10.292-10.957-10.48-2.833-.095-5.572-.284-8.122-.661-.095-1.322-.378-2.644-.945-3.871.283-.284.661-.567.945-.945l3.022-3.493.094-.095c3.684-4.343 3.59-10.858-.377-15.107-1.984-2.077-3.778-4.154-5.29-6.231.85-1.039 1.606-2.172 2.078-3.399h.661.662l4.722-.283c5.762-.378 10.295-5.099 10.484-10.953.095-2.833.284-5.571.661-8.12 1.323-.094 2.645-.378 3.873-.944.189.377.472.661.85.944zm-29.658-.755v-.284-.188-.095-.094c.095-5.382.85-10.386 2.173-14.73v-.094l.283-1.039s.094-.094.094-.188l.284-.661c.85-2.266 1.889-4.249 3.117-6.138.566-.944 1.228-1.794 1.983-2.643 1.323-1.511 2.834-2.455 4.723-2.738.472-.095.85-.189 1.322-.189l9.162-.472c2.172-.095 4.061.944 5.1 2.832 1.039 1.889.945 4.155-.283 6.043l-.095.094-.094.095-.095.189s0 .094-.094.094l-.189.283-.189.284-.094.094-.189.283s0 .095-.095.095l-.283.377s0 .095-.094.095l-.095.094s0 .095-.094.095l-.095.188s0 .095-.094.095l-.189.283c-2.55 4.438-4.25 9.348-5.384 15.201-.094.473-.189.945-.189 1.322l-.094.756v.189c0 .188 0 .283-.095.472-.377 2.738-.661 5.665-.755 8.686-.095 3.494-2.739 6.326-6.234 6.515l-4.723.283c-.094 0-.188 0-.283 0-1.322 0-2.55-.472-3.684-1.416-3.116-2.927-4.722-9.347-4.817-12.841v-.566-.095zm-22.573 26.72-.095-.189s0 0 0-.094l-.094-.189s0 0 0-.094c-.945-2.172-1.7-4.344-2.173-6.515-.189-1.039-.378-2.078-.472-3.116-.094-1.983.283-3.682 1.322-5.288.284-.377.473-.755.85-1.038l6.045-6.798c1.417-1.605 3.495-2.266 5.573-1.7 2.172.567 3.683 2.266 4.061 4.438v.283.095.283.094l.095.283v.095l.189 1.038v.095l.188.661v.189l.095.283c1.322 4.91 3.589 9.631 6.895 14.446 0 0 0 .094.094.094.284.378.473.756.756 1.039l.472.661.095.094c.094.095.189.284.283.378 1.606 2.172 3.495 4.438 5.667 6.704 2.361 2.549 2.456 6.42.189 9.064l-.095.094-2.928 3.399c-.094.095-.094.095-.188.189-.945.944-2.078 1.511-3.59 1.511-4.344.189-10.011-3.305-12.467-5.665l-.378-.378s0 0-.094-.094l-.945-.944c-3.778-3.872-6.8-7.932-8.878-11.992v-.094l-.189-.378s0 0 0-.094l-.378-.85c.095.094.095 0 .095 0zm30.696 51.458h-.094-.189-.095-.094-.189-.283-.189-.095-.189c-5.383-.094-10.389-.85-14.734-2.171h-.094l-1.039-.378h-.095l-.661-.283c-2.267-.85-4.25-1.889-6.139-3.116-.945-.567-1.795-1.228-2.645-1.889-1.511-1.321-2.456-2.832-2.739-4.72-.095-.473-.189-.85-.189-1.322l-.472-9.159c-.095-2.172.944-4.06 2.833-5.099 1.889-1.038 4.156-.944 6.045.284l.095.094c.094 0 .094.095.189.095l.283.188s.094 0 .094.095l.095.094.283.189.095.094.566.284.095.094.378.189h.094l.189.094s.094 0 .094.095l.284.189c4.439 2.549 9.35 4.249 15.206 5.382.473.094.945.188 1.323.188l.755.095h.095c.189 0 .283 0 .472.094 2.739.378 5.667.661 8.689.756 3.495.094 6.329 2.738 6.518 6.231l.283 4.721v.283c0 1.322-.472 2.55-1.417 3.683-2.928 3.21-9.351 4.721-12.845 4.815zm27.391 21.811s-.095 0-.095.094l-1.227.567s-.095 0-.095.094l-.189.095-.189.094c-2.172 1.039-4.439 1.7-6.611 2.172-1.039.189-2.078.377-3.117.472-1.984.094-3.684-.283-5.289-1.322-.378-.283-.756-.472-1.039-.85l-6.801-6.043c-1.605-1.416-2.267-3.493-1.7-5.57.567-2.172 2.267-3.683 4.534-4.06h.094.189.189.094l.284-.095h.094l1.039-.283h.095l.755-.189h.095l.377-.094c4.912-1.322 9.634-3.588 14.546-6.987.378-.283.756-.567 1.133-.756l.567-.472c.094 0 .095-.094.189-.094.094-.095.283-.189.378-.283 2.172-1.7 4.439-3.588 6.706-5.665 2.55-2.361 6.422-2.455 9.067-.189 0 0 .095 0 .095.094l3.4 3.021c.094.095.094.095.189.189.944.945 1.511 2.078 1.511 3.588.189 4.249-3.306 10.009-5.667 12.463l-.378.378s0 0-.094.095l-.945.944c-4.061 3.493-8.123 6.515-12.184 8.592z"/></g></svg>